<?xml version="1.0" encoding="utf-8"?>
<!-- Generator: Adobe Illustrator 24.0.0, SVG Export Plug-In . SVG Version: 6.00 Build 0)  -->
<svg version="1.0" id="Layer_1" xmlns="http://www.w3.org/2000/svg" xmlns:xlink="http://www.w3.org/1999/xlink" x="0px" y="0px"
	 viewBox="0 0 452.83 151.22" style="enable-background:new 0 0 452.83 151.22;" xml:space="preserve">
<style type="text/css">
	.st0{fill:#FFFFFF;}
</style>
<g>
	<path class="st0" d="M142.75,91.47c-5.1-0.73-8.05-0.93-12.34-0.93l0,0c-0.01,0-0.01,0-0.02,0c0,0,0,0-0.01,0l0,0
		c-4.46,0-7.5,0.13-12.35,0.82c-21.35,3.04-19.26,29.47-19.26,29.47s-2.1,26.42,19.26,29.46c5.1,0.73,8.06,0.92,12.35,0.92l0,0
		c0,0,0.01,0,0.01,0c0,0,0.01,0,0.01,0l0,0c4.47,0,7.5-0.12,12.34-0.82c21.36-3.04,19.26-29.46,19.26-29.46
		S164.12,94.51,142.75,91.47z M137.36,135.78c-2.76,0.4-4.04,0.52-7.02,0.47l0,0c-2.94,0.04-4.17-0.19-6.88-0.58
		c-10.04-1.46-9.46-14.85-9.46-14.85s-0.57-13.4,9.46-14.85c2.72-0.4,3.94-0.52,6.89-0.47l0,0c0.01,0,0.02,0,0.03,0
		c0.04,0,0.07-0.01,0.1,0v-0.01c2.95-0.04,4.17,0.18,6.88,0.58c10.04,1.45,9.46,14.85,9.46,14.85S147.39,134.33,137.36,135.78z"/>
	<path class="st0" d="M44.5,53.93c0.7-5.78,0.89-11.13,0.89-15.98l0,0c0,0,0-0.02,0-0.02c0,0,0-0.01,0-0.01l0,0
		c0-5.07-0.13-10.5-0.79-15.98C41.68-2.32,22.74,0.06,22.74,0.06S3.81-2.32,0.89,21.93C0.19,27.71,0,33.05,0,37.91l0,0
		c0,0,0,0.01,0,0.02c0,0,0,0.01,0,0.02l0,0c0,5.07,0.13,10.49,0.79,15.98c2.92,24.25,21.85,21.86,21.85,21.86
		S41.58,78.17,44.5,53.93z M14.82,47.8c-0.38-3.14-0.5-6.56-0.45-9.95l0,0c-0.04-3.35,0.18-6.72,0.55-9.8
		c1.4-11.39,7.82-10.74,7.82-10.74s6.43-0.66,7.82,10.74c0.38,3.09,0.5,6.47,0.45,9.8l0,0c0,0.01,0,0.02,0,0.04
		c0,0.03,0,0.08,0,0.11l0,0c0.05,3.35-0.17,6.72-0.55,9.8c-1.4,11.39-7.82,10.74-7.82,10.74S16.22,59.19,14.82,47.8z"/>
	<path class="st0" d="M234.26,97.54c0.7-5.78,0.89-32.92,0.89-37.79l0,0c0-0.01,0-0.01,0-0.02c0,0,0-0.01,0-0.01l0,0
		c0-5.07-0.12-32.3-0.78-37.79c-2.93-24.25-21.86-21.86-21.86-21.86s-18.94-2.39-21.86,21.86c-0.7,5.78-0.88,32.93-0.89,37.79l0,0
		c0,0.01,0,0.01,0,0.02c0,0,0,0.01,0,0.01l0,0c0.01,5.07,0.13,32.29,0.79,37.79c2.92,24.25,21.86,21.86,21.86,21.86
		S231.34,121.79,234.26,97.54z M204.59,91.41c-0.38-3.13-0.5-28.37-0.45-31.75l0,0c-0.04-3.34,0.17-28.52,0.56-31.6
		c1.4-11.39,7.81-10.74,7.81-10.74s6.42-0.66,7.82,10.74c0.38,3.08,0.5,28.27,0.45,31.6l0,0c0,0.01,0,0.02,0,0.04
		c0,0.04,0,0.08,0,0.12l0,0c0.04,3.35-0.17,28.52-0.55,31.6c-1.4,11.39-7.82,10.74-7.82,10.74S205.98,102.8,204.59,91.41z"/>
	<rect x="54.91" y="-0.48" class="st0" width="14.31" height="74.6"/>
	<polygon class="st0" points="152.23,-0.48 152.23,33.25 146.42,33.25 146.42,-0.48 137.44,-0.48 137.44,74.13 146.42,74.13 
		146.42,45.65 152.23,45.65 152.23,74.13 161.21,74.13 161.21,-0.48 	"/>
	<polygon class="st0" points="21.64,134.96 21.64,90.52 7.33,90.52 7.33,150.13 9.21,150.13 21.64,150.13 69.22,150.13 
		69.22,134.96 	"/>
	<polygon class="st0" points="300.07,134.96 300.07,90.52 285.76,90.52 285.76,150.13 289.2,150.13 300.07,150.13 349.2,150.13 
		349.2,134.96 	"/>
	<polygon class="st0" points="354.45,29.13 349.2,29.13 349.2,-0.48 334.9,-0.48 334.9,74.77 349.2,74.77 349.2,43.91 354.45,43.91 
			"/>
	<polygon class="st0" points="452.83,29.13 447.58,29.13 447.58,-0.48 433.28,-0.48 433.28,74.77 447.58,74.77 447.58,43.91 
		452.83,43.91 	"/>
	<g>
		<path class="st0" d="M382.02-0.48v75.25h40.69V-0.48H382.02z M408.94,60.5h-13.16v-46.7h13.16V60.5z"/>
	</g>
	<polygon class="st0" points="132.96,74.13 118.53,37.59 128.53,-0.48 113.73,-0.46 94.36,74.13 109.13,74.13 113.24,57.73 
		119.55,74.13 	"/>
	<polygon class="st0" points="324.31,13.23 324.31,-0.48 300.07,-0.48 292.92,-0.48 285.76,-0.48 285.76,74.77 292.92,74.77 
		300.07,74.77 324.31,74.77 324.31,61.07 300.07,61.07 300.07,13.23 	"/>
	<path class="st0" d="M243.73-0.48v121.43c-6.01,12.81-22.42,13.63-22.42,13.63h-30.34v15.54h30.34c11.96,0,19.75-9.86,22.42-13.87
		v12.87h14.3V-0.48H243.73z"/>
	<path class="st0" d="M442.84,150.13l-26.67-37.47l9.99-22.14H410.9l-27.15,60.08h15.27l11.04-24.46c7.45,10.46,17.08,24,17.08,24
		H442.84z"/>
</g>
</svg>
